<svg version="1.1" id="Layer_1" xmlns="http://www.w3.org/2000/svg" xmlns:xlink="http://www.w3.org/1999/xlink" x="0px" y="0px"
	 width="100%" viewBox="0 0 180 180" enable-background="new 0 0 180 180" xml:space="preserve">
<path fill="#FFFFFF" opacity="1.000000" stroke="none" 
	d="
M99.000000,181.000000 
	C66.000000,181.000000 33.500004,181.000000 1.000004,181.000000 
	C1.000003,121.000008 1.000003,61.000011 1.000001,1.000012 
	C60.999989,1.000008 120.999977,1.000008 180.999969,1.000004 
	C180.999985,60.999989 180.999985,120.999977 181.000000,180.999985 
	C153.833328,181.000000 126.666664,181.000000 99.000000,181.000000 
M103.499977,155.876373 
	C113.324455,155.875931 123.149010,155.899048 132.973404,155.869324 
	C146.509232,155.828369 155.847321,146.511612 155.863678,132.950699 
	C155.897430,104.975929 155.895508,77.001060 155.865692,49.026279 
	C155.851273,35.491043 146.494034,26.146822 132.949585,26.133335 
	C104.974808,26.105480 76.999947,26.105572 49.025166,26.133390 
	C35.489807,26.146851 26.147186,35.498276 26.133560,49.049606 
	C26.105429,77.024391 26.102371,104.999260 26.136408,132.974030 
	C26.152903,146.530350 35.494289,155.844543 49.048100,155.867661 
	C66.865341,155.898056 84.682678,155.875916 103.499977,155.876373 
z"/>
<path fill="#353535" opacity="1.000000" stroke="none" 
	d="
M102.999969,155.876373 
	C84.682678,155.875916 66.865341,155.898056 49.048100,155.867661 
	C35.494289,155.844543 26.152903,146.530350 26.136408,132.974030 
	C26.102371,104.999260 26.105429,77.024391 26.133560,49.049606 
	C26.147186,35.498276 35.489807,26.146851 49.025166,26.133390 
	C76.999947,26.105572 104.974808,26.105480 132.949585,26.133335 
	C146.494034,26.146822 155.851273,35.491043 155.865692,49.026279 
	C155.895508,77.001060 155.897430,104.975929 155.863678,132.950699 
	C155.847321,146.511612 146.509232,155.828369 132.973404,155.869324 
	C123.149010,155.899048 113.324455,155.875931 102.999969,155.876373 
M76.990738,68.126762 
	C76.990738,63.521389 76.990738,58.916012 76.990738,54.246922 
	C71.468651,54.246922 66.590538,54.246922 61.690125,54.246922 
	C61.690125,59.331932 61.690125,64.037697 61.690125,68.996742 
	C67.098763,68.996742 72.081741,68.996742 76.983376,69.929184 
	C76.938736,75.014297 76.894096,80.099403 76.903198,85.125053 
	C76.903198,85.125053 76.960953,85.069496 76.057243,84.833427 
	C71.299957,84.833427 66.542671,84.833427 61.716934,84.833427 
	C61.716934,91.188835 61.218349,97.020462 61.817348,102.737068 
	C63.203537,115.966293 74.610825,126.956451 87.397896,128.017578 
	C102.927650,129.306290 115.123810,121.113968 119.602966,106.385002 
	C123.397568,93.907082 117.028870,79.381340 105.245552,72.838745 
	C96.246574,67.842140 86.562347,69.158485 76.990738,68.126762 
z"/>
<path fill="#FBFBFB" opacity="1.000000" stroke="none" 
	d="
M76.993324,69.070724 
	C86.562347,69.158485 96.246574,67.842140 105.245552,72.838745 
	C117.028870,79.381340 123.397568,93.907082 119.602966,106.385002 
	C115.123810,121.113968 102.927650,129.306290 87.397896,128.017578 
	C74.610825,126.956451 63.203537,115.966293 61.817348,102.737068 
	C61.218349,97.020462 61.716934,91.188835 61.716934,84.833427 
	C66.542671,84.833427 71.299957,84.833427 76.513985,85.405357 
	C76.988297,90.640358 76.768074,95.319275 77.077606,99.962883 
	C77.577003,107.454712 84.276154,113.310913 91.543320,112.966690 
	C98.957855,112.615486 104.931770,106.364128 105.006432,98.878296 
	C105.083069,91.194435 99.469452,85.094116 91.779381,84.879921 
	C86.809425,84.741478 81.826553,85.066940 76.849464,85.184517 
	C76.894096,80.099403 76.938736,75.014297 76.988564,69.464447 
	C76.993752,68.999702 76.993324,69.070724 76.993324,69.070724 
z"/>
<path fill="#97DC64" opacity="1.000000" stroke="none" 
	d="
M77.029236,68.998222 
	C72.081741,68.996742 67.098763,68.996742 61.690125,68.996742 
	C61.690125,64.037697 61.690125,59.331932 61.690125,54.246922 
	C66.590538,54.246922 71.468651,54.246922 76.990738,54.246922 
	C76.990738,58.916012 76.990738,63.521389 76.992035,68.598740 
	C76.993324,69.070724 76.993752,68.999702 77.029236,68.998222 
z"/>
<path fill="#363636" opacity="1.000000" stroke="none" 
	d="
M76.876328,85.154785 
	C81.826553,85.066940 86.809425,84.741478 91.779381,84.879921 
	C99.469452,85.094116 105.083069,91.194435 105.006432,98.878296 
	C104.931770,106.364128 98.957855,112.615486 91.543320,112.966690 
	C84.276154,113.310913 77.577003,107.454712 77.077606,99.962883 
	C76.768074,95.319275 76.988297,90.640358 76.965836,85.523392 
	C76.960953,85.069496 76.903198,85.125053 76.876328,85.154785 
z"/>
</svg>